<svg xmlns="http://www.w3.org/2000/svg" width="231.649" height="373.882" viewBox="0 0 231.649 373.882">
  <g id="hotel" transform="translate(-941 -518.2)">
    <g id="Group_1" data-name="Group 1" transform="translate(941 508)">
      <rect id="Rectangle_1" data-name="Rectangle 1" width="231.649" height="2.6" transform="translate(0 10.2)" fill="#4d5754"/>
      <rect id="Rectangle_2" data-name="Rectangle 2" width="231.549" height="2" transform="translate(0.1 382.082)" fill="#4d5754"/>
      <path id="Path_1" data-name="Path 1" d="M77.357,82.2v58.294H27.6V82.2C27.6,63.545,39.038,48,52.765,48S77.357,63.545,77.357,82.2Z" transform="translate(62.786 239.489)" fill="#4d5754"/>
      <path id="Path_2" data-name="Path 2" d="M15.5,14.9V382.082H84.685v-61.2c0-29.375,19.865-52.221,43.84-52.221,24.66,0,43.84,23.663,43.84,52.221v61.2H241.55V14.9H15.5ZM84,242.553c0,4.9-3.425,8.16-6.85,8.16h-36.3c-4.11,0-6.85-4.08-6.85-8.16v-46.51c0-4.9,3.425-8.16,6.85-8.16h36.3c4.11,0,6.85,4.08,6.85,8.16Zm0-77.516c0,4.9-3.425,8.16-6.85,8.16h-36.3c-4.11,0-6.85-4.08-6.85-8.16v-46.51c0-4.9,3.425-8.16,6.85-8.16h36.3c4.11,0,6.85,4.08,6.85,8.16ZM84,87.52c0,4.9-3.425,8.16-6.85,8.16h-36.3c-4.11,0-6.85-4.08-6.85-8.16V41.011c0-4.9,3.425-8.16,6.85-8.16h36.3c4.11,0,6.85,4.08,6.85,8.16Zm69.87,155.032c0,4.9-3.425,8.16-6.85,8.16h-36.3c-4.11,0-6.85-4.08-6.85-8.16v-46.51c0-4.9,3.425-8.16,6.85-8.16h36.3c4.11,0,6.85,4.08,6.85,8.16Zm0-77.516c0,4.9-3.425,8.16-6.85,8.16h-36.3c-4.11,0-6.85-4.08-6.85-8.16v-46.51c0-4.9,3.425-8.16,6.85-8.16h36.3c4.11,0,6.85,4.08,6.85,8.16Zm0-77.516c0,4.9-3.425,8.16-6.85,8.16h-36.3c-4.11,0-6.85-4.08-6.85-8.16V41.011c0-4.9,3.425-8.16,6.85-8.16h36.3c4.11,0,6.85,4.08,6.85,8.16Zm69.87,155.032c0,4.9-3.425,8.16-6.85,8.16h-36.3c-4.11,0-6.85-4.08-6.85-8.16v-46.51c0-4.9,3.425-8.16,6.85-8.16h36.3c4.11,0,6.85,4.08,6.85,8.16Zm0-77.516c0,4.9-3.425,8.16-6.85,8.16h-36.3c-4.11,0-6.85-4.08-6.85-8.16v-46.51c0-4.9,3.425-8.16,6.85-8.16h36.3c4.11,0,6.85,4.08,6.85,8.16Zm0-77.516c0,4.9-3.425,8.16-6.85,8.16h-36.3c-4.11,0-6.85-4.08-6.85-8.16V41.011c0-4.9,3.425-8.16,6.85-8.16h36.3c4.11,0,6.85,4.08,6.85,8.16Z" transform="translate(-13.261 0)" fill="#4d5754"/>
    </g>
  </g>
</svg>
