<svg id="linkedin" xmlns="http://www.w3.org/2000/svg" width="44.316" height="46.138" viewBox="0 0 44.316 46.138">
  <g id="Group_1" data-name="Group 1">
    <path id="Path_1" data-name="Path 1" d="M0,23.069C0,10.328,9.921,0,22.158,0S44.316,10.328,44.316,23.069,34.4,46.138,22.158,46.138,0,35.809,0,23.069Z" fill="#efefef"/>
    <path id="Path_2" data-name="Path 2" d="M16.431,14.605a2.719,2.719,0,0,1-.785,1.928,2.316,2.316,0,0,1-1.846.68h-.03a2.379,2.379,0,0,1-2.231-1.275,2.794,2.794,0,0,1,.032-2.725A2.369,2.369,0,0,1,13.83,12a2.309,2.309,0,0,1,1.828.689A2.709,2.709,0,0,1,16.431,14.605Zm-.306,4.666V34.358H11.475V19.272ZM32.891,34.358v-8.65c0-4.633-2.294-6.791-5.353-6.791A4.55,4.55,0,0,0,23.35,21.41V19.272H18.7c.062,1.415,0,15.086,0,15.086h4.65V25.932a3.685,3.685,0,0,1,.153-1.223,2.566,2.566,0,0,1,2.386-1.833c1.683,0,2.356,1.385,2.356,3.41v8.072Z" fill="#3d3d3d" fill-rule="evenodd"/>
  </g>
</svg>
