<svg xmlns="http://www.w3.org/2000/svg" width="609.192" height="455.458" viewBox="0 0 609.192 455.458">
  <g id="rent-a-car" transform="translate(-604.333 -272.542)">
    <g id="Group_1" data-name="Group 1" transform="translate(948 528)">
      <path id="Path_1" data-name="Path 1" d="M0,0H200V200H0Z" fill="none"/>
      <path id="Path_2" data-name="Path 2" d="M541.8,33.561C535.027,16.877,516.075,5,493.738,5H121.454C99.117,5,80.5,16.877,73.4,33.561L6.723,193.9A50.06,50.06,0,0,0,3,212.565V415.04c0,23.471,22.675,42.418,50.766,42.418s50.766-18.947,50.766-42.418V400.9H510.66V415.04c0,23.188,22.675,42.418,50.766,42.418,27.752,0,50.766-18.947,50.766-42.418V212.565a51.2,51.2,0,0,0-3.723-18.664Zm-420.342,282.5c-28.091,0-50.766-18.947-50.766-42.418s22.675-42.418,50.766-42.418,50.766,18.947,50.766,42.418S149.544,316.065,121.454,316.065Zm372.284,0c-28.091,0-50.766-18.947-50.766-42.418s22.675-42.418,50.766-42.418S544.5,250.176,544.5,273.647,521.828,316.065,493.738,316.065ZM70.688,174.672,113.67,66.647c4.738-11.311,17.6-19.229,32.152-19.229H469.37c14.553,0,27.414,7.918,32.152,19.229L544.5,174.672Z" transform="translate(-346.667 -260.458)" fill="#4d5754"/>
    </g>
  </g>
</svg>
